PathFileType	4	(X/Y/Z)	C:/Users/beibeiliu/ov580/test_trc/User3\sequence.26_training_dense_right.trc
DataRate	CameraRate	NumFrames	NumMarkers	Units	OrigDataRate	OrigDataStartFrame	OrigNumFrames
120	120	24	19	mm	120	77	102
Frame#	Time	ThumbCMC			ThumbMCP			ThumbIP			ThumbTip			IndexMCP			IndexPIP			IndexTip			MiddleMCP			MiddlePIP			MiddleTip			RingMCP			RingPIP			RingTip			PinkyMCP			PinkyPIP			PinkyTip			BackHand1			BackHand2			BackHand3	
		X0	Y0	Z0	X1	Y1	Z1	X2	Y2	Z2	X3	Y3	Z3	X4	Y4	Z4	X5	Y5	Z5	X6	Y6	Z6	X7	Y7	Z7	X8	Y8	Z8	X9	Y9	Z9	X10	Y10	Z10	X11	Y11	Z11	X12	Y12	Z12	X13	Y13	Z13	X14	Y14	Z14	X15	Y15	Z15	X16	Y16	Z16	X17	Y17	Z17	X18	Y18	Z18	
76	0.633333	177.702	-6.75807	1.65514	169.859	10.5497	-34.4761	154.946	15.1104	-58.5311	132.247	8.8941	-74.334	186.168	-48.6643	-60.3834	197.277	-50.121	-87.3463	196.556	-55.1858	-116.016	162.658	-37.6963	-72.9049	150.61	-7.22288	-82.7422	148.957	5.89184	-46.651	143.442	-39.0637	-64.7487	131.989	-8.52205	-71.9747	133.415	2.4741	-42.2517	129.218	-53.2387	-48.7569	127.431	-56.916	-69.261	129.921	-62.0332	-93.7804	145.742	-58.1494	-8.37683	140.726	-57.9386	17.0739	175.184	-46.6785	6.32821	
77	0.641667	186.136	-1.37328	4.61577	175.67	9.58156	-28.5832	167.035	9.95986	-58.3984	148.705	-4.01564	-76.2175	220.992	-41.1309	-53.0854	229.813	-42.2306	-76.6189	235.494	-47.2262	-100.876	189.614	-39.7989	-67.234	176.897	-13.7076	-80.3132	159.151	-2.48346	-46.2237	168.41	-46.2699	-65.9174	157.731	-21.132	-73.3386	148.64	-5.46001	-46.4025	157.015	-65.2834	-47.0908	162.268	-69.2262	-68.7041	168.875	-74.1999	-91.5764	170.367	-61.3684	-6.61236	159.767	-58.6486	20.0114	191.097	-42.075	10.7894	
78	0.65	183.991	10.476	8.10451	173.98	18.4328	-27.4033	169.518	11.1343	-63.4687	159.77	-12.8373	-73.8265	232.407	-18.0632	-42.8064	249.299	-13.4842	-66.0835	258.21	-16.9309	-90.204	209.674	-27.7386	-58.139	186.053	-11.8925	-77.884	164.813	-2.39166	-46.1774	191.269	-40.8103	-59.3604	168.159	-23.9501	-71.4303	154.975	-11.7374	-44.0712	188.968	-61.6124	-44.4514	194.475	-65.4199	-60.8811	206.928	-66.3129	-79.9861	194.275	-52.9223	0.582958	181.833	-49.7575	28.5802	204.349	-25.2877	15.6179	
79	0.658333	171.418	20.0064	5.82833	162.763	23.2598	-30.3312	160.934	12.8402	-56.8288	165.564	-11.1564	-71.5579	233.402	18.2752	-41.564	246.477	21.4394	-64.4392	255.877	29.1867	-84.9329	215.275	-2.47872	-55.4824	188.852	0.675117	-75.7806	162.686	-1.16048	-41.1041	206.466	-22.227	-52.0767	178.476	-17.4346	-70.0446	158.445	-14.3731	-42.0214	212.156	-44.8957	-38.808	220.292	-39.6937	-55.317	233.922	-43.2029	-76.2531	208.557	-31.793	5.85358	195.866	-33.1681	29.5769	202.693	-0.400738	19.9855	
80	0.666667	151.462	20.437	5.26731	144.08	18.4836	-34.2817	147.868	8.28847	-61.7892	160.366	-11.9976	-77.1273	210.572	42.0225	-43.5317	217.553	54.4878	-65.5703	225.739	61.9274	-87.4939	202.204	15.7154	-58.6034	177.562	4.82034	-77.1115	154.719	-3.54294	-45.1996	204.567	-3.83299	-53.318	179.295	-11.7335	-70.4715	156.26	-17.5891	-45.1141	217.114	-17.9834	-37.0204	227.219	-15.4744	-57.6057	238.918	-11.084	-77.9485	208.258	-7.12026	5.45776	196.656	-16.5781	29.1974	188.082	16.8137	18.4429	
81	0.675	131.029	10.542	0.685339	123.587	3.43163	-35.3754	130.21	-4.61129	-64.4575	151.917	-18.4514	-72.9799	172.121	52.6216	-51.0964	175.282	63.5743	-74.612	180.498	73.7617	-97.9269	180.018	21.5234	-67.4778	158.592	-0.331158	-79.267	143.887	-11.416	-46.0882	188.782	4.25808	-60.8422	165.461	-14.1975	-73.4678	152.331	-27.7082	-44.7383	207.706	-1.25773	-43.6317	215.912	2.25655	-61.8683	225.021	10.9354	-78.2933	194.229	6.54349	1.23439	190.768	-5.63308	26.7024	170.14	21.4786	12.1222	
82	0.683333	113.68	1.23856	-2.82046	108.958	-11.5362	-36.1692	119.768	-20.4393	-64.4555	141.926	-30.1892	-74.3084	144.528	42.9302	-62.4238	141.486	51.9581	-84.0114	142.586	57.5554	-106.403	155.827	17.0562	-71.4185	139.818	-6.49957	-85.5855	134.038	-21.5729	-44.2954	169.113	1.71479	-67.2406	152.133	-23.6208	-73.6974	143.896	-34.167	-46.5455	190.75	2.57528	-46.8639	198.528	6.44091	-67.7339	204.253	15.2996	-83.8431	180.241	14.4004	-10.2241	177.536	6.9354	18.5642	149.273	23.6041	2.89022	
83	0.691667	105.767	-5.87172	-2.03445	97.3782	-24.6169	-36.1264	106.55	-36.1272	-61.324	131.718	-43.6506	-73.053	122.279	29.1982	-68.8059	113.578	34.2902	-96.279	109.636	36.6044	-120.378	140.077	5.32775	-76.7925	127.356	-23.6772	-85.514	122.892	-31.8153	-46.4321	152.591	-5.19895	-68.2359	144.213	-33.9067	-74.8637	131.905	-40.7194	-41.7957	176.192	0.173777	-56.9049	180.188	2.55635	-76.8645	186.449	8.49409	-92.0718	166.895	15.2985	-16.0278	167.465	8.90398	15.7031	134.983	23.8087	-2.54766	
84	0.7	95.5889	-10.4174	-3.25325	91.3564	-33.7992	-31.7502	99.4654	-51.958	-58.2199	123.127	-57.8087	-64.5254	100.686	13.5375	-77.1211	97.3435	8.75821	-103.056	91.6523	5.37914	-126.844	123.903	-9.51163	-78.5158	114.856	-43.5495	-81.0574	116.124	-43.2353	-41.1963	138.494	-19.9546	-73.2854	136.191	-50.3992	-69.1759	123.517	-48.7863	-38.0211	165.148	-9.57388	-55.5602	171.723	-11.237	-76.9229	172.578	-8.45053	-97.3603	148.807	14.0468	-25.6103	154.656	13.8318	5.48195	122.879	19.6079	-11.358	
85	0.708333	87.188	-15.2928	-4.23365	81.6231	-44.868	-25.2542	93.7953	-64.104	-47.1186	115.178	-74.7175	-56.4549	91.4676	-5.57733	-77.1899	84.2041	-13.4122	-102.756	78.8529	-23.1728	-126.882	111.491	-29.0301	-80.6095	107.736	-59.0417	-76.957	105.321	-53.4283	-33.9403	133.221	-37.438	-69.5871	123.416	-63.2735	-62.3545	119.205	-56.7337	-27.4797	155.636	-22.0564	-60.4917	161.475	-27.4558	-77.3881	163.409	-31.9698	-101.752	139.249	6.90549	-26.8002	144.71	11.298	4.06631	113.253	15.1782	-12.0403	
86	0.716667	77.4943	-16.6623	-1.5104	68.7604	-49.7083	-14.9585	77.4572	-75.5703	-36.7093	100.348	-87.5539	-42.7097	81.8973	-20.4254	-78.1918	74.8805	-32.1467	-96.7016	69.4716	-48.6119	-122.079	103.857	-43.9922	-73.8826	93.8862	-74.918	-63.3712	91.9146	-59.4838	-24.9817	120.776	-54.6032	-63.02	108.048	-76.6743	-47.2094	101.773	-60.3092	-18.5518	144.616	-39.3232	-55.7576	147.756	-49.3135	-74.9296	151.488	-58.7067	-92.7263	132.902	-4.62104	-30.338	140.011	8.63226	-1.73773	105.693	10.3789	-19.1197	
87	0.725	73.473	-8.43885	4.73144	57.4839	-42.2094	-9.80768	56.2911	-71.8361	-23.3895	79.861	-88.7908	-29.3108	75.69	-26.5302	-72.7672	64.1007	-38.6703	-90.3316	51.3985	-52.3058	-109.233	86.6037	-54.2654	-65.71	69.2316	-76.2212	-51.3295	74.7459	-61.4542	-15.5701	101.759	-63.7277	-52.664	88.2865	-82.166	-32.3127	85.5921	-61.7554	-7.30251	131.206	-58.3704	-47.3451	127.889	-72.9015	-62.6377	127.924	-91.5054	-79.1149	130.744	-14.352	-26.8872	136.441	-3.00205	-1.9431	105.586	6.80449	-15.4586	
88	0.733333	73.613	6.00779	8.80846	43.4117	-20.1357	-0.257691	35.8943	-47.7447	-10.6779	50.3455	-71.9289	-13.893	67.5738	-22.3279	-65.2561	50.9547	-34.5362	-86.063	32.6203	-45.2134	-101.834	69.0587	-52.8024	-55.3671	44.7552	-65.2999	-40.1889	53.4212	-44.6452	-4.92032	74.6974	-61.3055	-41.221	56.5379	-70.2556	-18.3113	68.4049	-48.2306	5.83034	104.417	-66.1018	-36.2471	95.6968	-85.9728	-48.8299	84.0659	-103.677	-61.8078	118.491	-25.4617	-24.2398	132.257	-12.2788	-0.451233	107.044	5.98658	-16.1257	
89	0.741667	78.2419	19.3271	5.14604	43.6181	8.87492	2.83085	20.7872	-13.8581	-5.82159	23.9394	-39.0833	-3.74603	60.7526	-8.22505	-61.2601	42.1461	-10.8718	-78.9557	22.2833	-23.7787	-96.4495	51.3178	-34.6076	-46.6699	22.0608	-32.7933	-29.3749	42.8822	-15.7797	0.875612	52.1963	-45.7933	-32.8058	33.2555	-46.3474	-11.194	47.7301	-24.9702	10.5805	75.8656	-64.9438	-25.5086	61.3656	-73.8886	-35.2826	46.2878	-88.0293	-44.9577	110.405	-31.4466	-15.3605	126.431	-24.1467	5.80481	109.333	5.0549	-17.1936	
90	0.75	91.9321	34.4174	5.38903	52.7978	37.8843	-1.46294	23.1289	24.8342	-8.49646	12.4906	-0.391027	-3.50898	63.5082	10.7267	-63.6228	44.4164	8.65039	-78.5782	24.9941	10.3148	-95.4512	44.2535	-9.73327	-44.4567	18.0227	6.33902	-28.8256	40.1441	14.5095	1.53605	41.0401	-22.4526	-28.3312	22.1131	-6.20415	-6.82824	46.4563	3.98228	13.0144	53.0534	-43.5168	-19.2577	33.3385	-51.4352	-27.5316	17.0306	-54.9788	-37.5756	96.143	-27.0374	-14.8693	118.985	-22.6774	11.6731	113.308	4.78158	-16.1546	
91	0.758333	107.164	36.335	3.15435	74.604	58.3992	-6.58252	46.888	58.1026	-8.93719	23.193	42.0087	-7.63946	72.4598	22.2006	-63.8071	56.2521	32.0333	-85.4275	39.619	37.3648	-101.098	46.7331	17.809	-46.6833	30.1759	43.035	-29.0955	55.7828	40.642	-0.990729	38.9453	8.86775	-31.717	26.511	29.0161	-8.98456	51.8672	32.2983	8.3967	40.2009	-19.8528	-18.1908	20.9488	-16.7779	-30.8059	6.11385	-17.4126	-40.8886	86.6181	-21.1407	-13.7276	106.681	-25.853	13.1521	116.307	2.18731	-12.1534	
92	0.766667	122.633	34.1693	0.566587	100.806	60.0985	-8.03049	75.153	75.5594	-16.7725	50.3155	63.5555	-14.18	91.7501	29.4665	-67.1623	80.4533	40.2351	-90.6735	66.6029	48.5207	-107.576	63.0338	34.1709	-52.4433	56.7605	64.5966	-38.1435	72.645	53.726	-6.6171	52.4322	29.4775	-37.2807	43.7196	52.8112	-21.2583	70.2172	44.4164	5.28668	40.2616	3.18302	-26.4298	29.8086	9.21126	-35.3535	12.0947	13.0005	-51.355	83.7015	-15.3117	-12.8288	98.0419	-25.8842	15.4338	117.865	-2.58832	-10.5848	
93	0.775	136.795	20.4613	2.07645	125.862	53.4431	-11.6987	101.377	69.9286	-28.6778	74.6475	70.8475	-28.806	112.72	16.5383	-68.4675	110.098	26.4232	-92.1396	97.5773	34.8308	-114.352	87.8194	28.9854	-59.3318	81.6519	62.5506	-46.5481	98.317	49.7579	-14.2667	70.8583	30.5371	-45.2554	68.9168	55.8838	-33.1136	87.9388	50.7285	-7.10442	54.7245	9.01948	-32.5497	42.1953	15.1215	-45.0872	29.4309	20.5875	-62.7339	85.7912	-17.7493	-14.2414	100.31	-26.8759	17.1917	123.605	-15.5605	-11.6825	
94	0.783333	146.893	2.51516	10.1104	143.437	32.0611	-12.9047	125.323	48.9671	-38.464	96.245	47.948	-43.1625	131.682	-13.1131	-66.3783	133.307	-8.91779	-93.0802	134.395	-5.42165	-114.837	108.365	4.20351	-64.6577	107.415	38.3034	-59.6376	115.218	31.6861	-21.8023	89.6632	8.09505	-54.0211	88.7709	36.0923	-46.1502	101.045	34.8879	-14.7728	74.7224	-8.51126	-37.3693	64.5329	-3.97561	-56.283	52.2285	-2.46309	-78.0129	96.1792	-31.9723	-10.6936	99.9077	-37.2227	17.5967	134.615	-34.8368	0.860458	
95	0.791667	156.608	-14.8401	13.758	154.677	7.47485	-15.4693	139.441	16.1155	-46.9417	115.284	12.527	-53.0906	155.395	-51.0243	-51.5817	158.901	-54.5012	-79.9819	163.269	-55.4723	-102.84	125.411	-35.4593	-59.5338	127.182	-1.39969	-68.4278	126.289	6.26882	-30.0353	110.382	-30.4192	-53.3503	108.065	0.100799	-56.9542	114.031	9.05341	-24.6196	90.9404	-42.7971	-38.7193	82.6189	-42.9559	-60.4681	76.6259	-44.6925	-79.6483	110.743	-58.0494	-1.64318	107.737	-55.5383	27.6504	140.335	-54.5503	10.6425	
96	0.8	164.567	-25.7326	19.3487	157.154	-14.5295	-14.6441	149.302	-9.99081	-42.731	127.013	-17.8535	-57.6154	178.128	-74.3803	-35.5302	187.932	-80.9315	-58.3683	189.021	-88.0197	-83.166	149.951	-62.5957	-54.1328	141.008	-34.2866	-66.1253	138.215	-16.1451	-33.2358	126.562	-61.4399	-45.5622	122.193	-29.9505	-55.0701	127.462	-14.9939	-26.6862	106.405	-74.4465	-29.5624	110.325	-79.1313	-53.5397	104.752	-87.302	-70.4703	127.579	-76.1267	11.364	122.987	-69.8977	37.4954	155.39	-65.6493	28.3301	
97	0.808333	166.743	-16.8621	23.6629	158.679	-12.3917	-9.6312	152.121	-10.6859	-40.8973	133.057	-29.5855	-53.7991	196.005	-66.9284	-24.5683	209.138	-71.3866	-48.2875	217.034	-77.3216	-71.7515	170.528	-64.9512	-44.6812	157.54	-40.6653	-60.4556	142.047	-22.3959	-27.5275	147.427	-68.709	-40.6138	133.047	-47.0661	-52.1602	126.703	-26.712	-25.3541	134.191	-84.3171	-20.6874	134.129	-94.4878	-44.0312	136.973	-104.377	-63.3732	146.531	-79.5753	18.6537	139.764	-72.1983	46.3998	171.801	-57.4662	35.3121	
98	0.816667	155.43	5.46073	28.9643	145.136	8.32941	-6.18155	139.624	-1.29681	-35.5284	130.284	-23.8071	-52.4142	202.907	-29.738	-23.0604	214.896	-30.8234	-47.1368	227.299	-29.1418	-71.5453	179.155	-41.8083	-40.3413	154.316	-24.2896	-56.8639	136.854	-11.9571	-27.2005	162.354	-54.3806	-32.6953	141.063	-40.1286	-48.8875	125.545	-24.1874	-24.6898	154.15	-75.4155	-14.2311	165.398	-77.7693	-37.8541	169.461	-85.8892	-56.917	166.7	-57.7059	25.4215	154.259	-56.051	53.4818	180.111	-28.0353	36.5743	
99	0.825	132.015	23.3564	28.0882	119.472	19.0147	-5.11841	117.611	7.89828	-36.8605	120.026	-16.2346	-51.2254	183.82	19.7004	-27.2065	192.008	23.9098	-50.3454	201.3	24.6716	-77.3689	170.881	-2.83396	-41.87	142.645	-4.66621	-56.826	120.834	-2.94625	-23.7289	163.673	-24.419	-35.414	135.526	-26.794	-46.8709	118.101	-21.4609	-20.1175	172.295	-46.8841	-16.7181	178.694	-50.1862	-37.5526	188.68	-49.9177	-57.2316	173.736	-26.6504	21.1604	164.595	-31.2163	52.097	167.606	6.40971	35.9926	
